<?xml version="1.0" encoding="UTF-8"?>
<!DOCTYPE svg PUBLIC "-//W3C//DTD SVG 1.1//EN" "http://www.w3.org/Graphics/SVG/1.1/DTD/svg11.dtd">
<!-- Creator: CorelDRAW 2018 (64 Bit Versão de avaliação) -->
<svg xmlns="http://www.w3.org/2000/svg" xml:space="preserve" width="60.37mm" height="38.5678mm" version="1.1" style="shape-rendering:geometricPrecision; text-rendering:geometricPrecision; image-rendering:optimizeQuality; fill-rule:evenodd; clip-rule:evenodd"
viewBox="0 0 2850.23 1820.89"
 xmlns:xlink="http://www.w3.org/1999/xlink">
 <defs>
  <style type="text/css">
   <![CDATA[
    .fil0 {fill:#FDFDFD}
   ]]>
  </style>
 </defs>
 <g id="Camada_x0020_1">
  <metadata id="CorelCorpID_0Corel-Layer"/>
  <g id="_2661262935328">
   <path class="fil0" d="M964.63 840.86c-15.22,15.15 -41.25,39.32 -54.78,56 22.28,48.43 132.74,129.14 188.3,159.55 54.82,30.01 129.88,57.29 197.34,64.86 71.51,8.03 59.34,-3.09 59.72,36.93 -6.97,4.49 -3.57,3.91 -16.73,6.74 -36.32,7.8 -117.34,-8.48 -156.57,9.73 -3.06,36.98 0.53,41.9 37.8,42.47 26.45,0.41 54.58,-0.57 81.55,-0.34l237.13 -0.06c28.98,-3.3 44.71,-23.03 22.67,-43.45 -13.77,-12.76 -125.96,-7.08 -154.24,-7.07l0.42 -32.91c1.45,-0.85 3.73,-3.28 4.45,-1.94l13.88 -4.59c51.24,-11.45 74.9,-0.83 164.62,-34.16 154.1,-57.24 281.12,-172.44 350.68,-333.88 97.22,-225.66 41.27,-513.67 -141.8,-676.93 -32.22,10.59 -39.81,34.64 -70.68,51.34 -55.2,-75.64 -232.24,-134.84 -352.47,-133.11 -384.87,5.55 -635.54,415.84 -457.4,763.01 13.15,25.64 37.44,55.72 46.11,77.81zm808.47 -672.47l52.32 73.79c16.11,24.4 33.22,56.95 44.39,85.92 52.45,136.05 50.36,303.26 -19.39,433.63 -97.61,182.46 -277.87,291.72 -493.38,283.87 -73.31,-2.67 -153.61,-26.12 -207.05,-53.44 -69.83,-35.7 -102.6,-70.48 -149.61,-110.92l-21.04 20.12c98.91,97.28 215.99,166.52 371.51,174.98 430.55,23.41 693.4,-412.87 548.13,-758.68 -20.25,-48.21 -74.1,-150.17 -110.95,-165.85l-14.92 16.58zm-744.63 467.6c32.36,12.08 50.83,22.26 73.89,43.07 1.34,32.26 -10.02,40.66 -3.7,65.59 33.02,7.2 27.55,-1.47 42.55,-26.34 34.21,-56.74 37.43,-27.25 9.21,-81.44 -5.6,-10.76 -11.49,-29.16 -17.19,-39 -16.48,-28.46 -54.67,-24.12 -92.95,-24.02l-11.81 62.14zm216.85 38.57l-1.08 70.74c45.66,8.29 168.82,-1.37 102,115.35 -50.14,4.58 -51.99,-17.39 -91.27,-17.11l4.03 57.5c27.24,44.23 2.64,-13.48 10.42,13.47l-64.81 32.11c8.36,36.27 131.95,47.68 165.1,48.4 175.82,3.82 366.81,-104.77 420.41,-235.08 -72.78,-45.52 -64.51,8.27 -199.19,2.18 -14.62,-32.15 -47.23,-59.18 -64.07,-84.66 -16.24,0.33 -32.93,1.72 -45.76,7.26 -20.5,8.86 -11.19,9.8 -30.49,24.8 -79.11,8.37 -76.68,-29.01 -112.01,-59.37 -53.15,10.89 -17.56,23.81 -93.28,24.39zm-243.37 -422.79l93.78 -10.67c18.11,21.33 34.45,51.63 52.74,74.18 22.06,27.2 25.58,59.83 56.32,74.91 67.26,33 105.23,-77.03 164.93,-79.44 34.19,25.72 34.78,57.33 72.22,84.58 25.71,18.71 73.92,61.13 108.14,29.46 15.64,-18.31 -8.62,-73.02 -16.8,-89.85 -18.62,-38.28 -29.38,-45.89 -1.96,-85.26 13.54,-19.44 46.48,-45.07 41.23,-78.69 -4.1,-26.26 -15.46,-23.65 -23.71,-39.06 -12.06,-22.54 -2.39,-24.36 0.76,-51.95 -127.02,-30.4 -194.76,-46.8 -325.92,-1.03 -79.96,27.91 -196.45,109.93 -221.72,172.83z"/>
   <polygon class="fil0" points="1898.38,1819.74 2120.59,1820.27 2120.78,1752.58 1976.6,1752.35 1973.47,1663.57 2108.49,1662.54 2107.79,1596.32 1973.9,1594.42 1974.83,1528.63 2089.08,1528.48 2089.04,1461.31 1898.75,1461.29 "/>
   <g>
    <path class="fil0" d="M1573.24 1819.96l75.49 -0.57 1.36 -61.02c69.87,-1.47 65.16,51.45 99.19,62.03l89.43 -0.53c-13.73,-35.27 -40.83,-36.27 -70,-84.52 89.98,-45.95 94.59,-153.77 54.55,-209.3 -57.68,-79.98 -130.24,-64.79 -249.77,-64.65l-0.24 358.58zm75.57 -130.62c71.61,0.88 119.45,-2.63 121.62,-76.83 2.3,-78.85 -52.02,-83.84 -121.63,-82.98l0.01 159.82z"/>
    <path class="fil0" d="M324.81 1819.45l75.17 0.73 0.98 -61.41c83.49,-4.43 46.3,59.68 121.88,61.97 20.4,0.62 45.32,-0.71 66,-1.36 -12.77,-24.97 -46.46,-59.52 -68,-73.66 18.89,-36.18 50.2,-31.48 69.92,-90.92 14.92,-44.99 8.98,-90.46 -14.34,-126.3 -49.89,-76.69 -140.14,-70.84 -251.89,-66.44l0.28 357.39zm75.15 -131.51c67.61,8.33 120.49,-6.95 122.87,-75.85 2.54,-73.49 -53.35,-87.05 -122.78,-82.06l-0.09 157.91z"/>
    <path class="fil0" d="M925.45 1819.82l74.47 0.34 0.59 -59.93c69.08,-11.87 100.4,6.47 148.28,-38.83 87.03,-82.36 54.83,-212.74 -37.95,-248.52 -47.7,-18.4 -130.24,-11.36 -185.44,-11.71l0.06 358.66zm74.77 -257.15l0.86 126.52c61.02,1.38 127.58,-0.72 121.58,-89.29 -4.55,-67.22 -58.91,-71.85 -121.81,-70.65l-0.64 33.43z"/>
    <path class="fil0" d="M-0 1819.57l75.09 0.06 1.06 -61.73c68.75,-0.74 108.13,-0.14 148.97,-39.22 74.03,-70.85 66.7,-201.55 -41.41,-245.52 -46.82,-19.04 -129.37,-12.29 -183.46,-11.38l-0.25 357.79zm74.87 -130.17c70.75,2.34 120.22,-5.59 122.88,-77.58 2.81,-76.37 -52.7,-83.83 -122.71,-82.78l-0.17 160.36z"/>
    <path class="fil0" d="M1166.75 1820.07l72.3 -0.49 23.13 -46.5 176.41 -0.5 22.01 47.81 77.97 -0.11c-11,-37.87 -105.85,-210.17 -136.11,-271.45l-51.42 -86.59c-18.48,25.08 -173.79,323.91 -184.29,357.83zm134.17 -116.23l99.6 0.04c-5.73,-29.4 -36.92,-76.03 -47.41,-105.96 -18.45,18.6 -49.01,85.18 -52.19,105.92z"/>
    <polygon class="fil0" points="650.31,1819.89 868.21,1820.7 873.56,1752.93 727.02,1752.32 725.04,1665.23 859.3,1662.54 858.65,1595.52 725.25,1595.25 725.97,1529.24 838.16,1529.02 841.61,1461.4 649.49,1461.95 "/>
   </g>
   <polygon class="fil0" points="2627.23,1562.67 2627.36,1819.31 2850.01,1819.58 2850.23,1753.24 2705.04,1752.23 2702.08,1663.68 2836.78,1662.36 2836.48,1595.94 2702.3,1594.48 2702.07,1529.38 2816.08,1528.45 2818.64,1463.41 2627.09,1461.66 "/>
   <path class="fil0" d="M2496.29 1733.21c-53.41,39.03 -50,18.22 -101.82,-3.29 -16.04,23.26 -34.32,22.04 -50.4,44.32 232.26,128.06 274.23,-78 201.24,-148.88 -37.14,-36.06 -79.28,-26.87 -124.91,-48.09 -4.89,-107.07 59.41,9.39 121.29,-76.83 -46.09,-76.17 -189.04,-52.19 -197.3,49.71 -4.42,54.54 24.7,85.14 63.33,101.07 54.35,22.41 97.47,3.52 88.57,81.98z"/>
   <polygon class="fil0" points="2162.17,1697.37 2302.44,1699.36 2302.54,1645.05 2162.51,1645.19 "/>
  </g>
 </g>
</svg>
