<?xml version="1.0" encoding="UTF-8"?>
<!DOCTYPE svg PUBLIC "-//W3C//DTD SVG 1.1//EN" "http://www.w3.org/Graphics/SVG/1.1/DTD/svg11.dtd">
<!-- Creator: CorelDRAW 2018 (64 Bit Versão de avaliação) -->
<svg xmlns="http://www.w3.org/2000/svg" xml:space="preserve" width="60.37mm" height="38.5678mm" version="1.1" style="shape-rendering:geometricPrecision; text-rendering:geometricPrecision; image-rendering:optimizeQuality; fill-rule:evenodd; clip-rule:evenodd"
viewBox="0 0 6630.22 4235.76"
 xmlns:xlink="http://www.w3.org/1999/xlink">
 <defs>
  <style type="text/css">
   <![CDATA[
    .fil0 {fill:#333333}
    .fil1 {fill:gray}
   ]]>
  </style>
 </defs>
 <g id="Camada_x0020_1">
  <metadata id="CorelCorpID_0Corel-Layer"/>
  <g id="_2661262902208">
   <path class="fil0" d="M2243.92 1956.01c-35.41,35.24 -95.94,91.47 -127.43,130.28 51.83,112.66 308.78,300.4 438.02,371.15 127.53,69.81 302.13,133.27 459.05,150.88 166.35,18.68 138.04,-7.18 138.93,85.92 -16.22,10.46 -8.31,9.09 -38.91,15.67 -84.49,18.14 -272.96,-19.74 -364.22,22.62 -7.13,86.03 1.24,97.46 87.94,98.79 61.52,0.94 126.97,-1.33 189.69,-0.78l551.6 -0.13c67.41,-7.69 104.01,-53.56 52.73,-101.07 -32.04,-29.69 -293.02,-16.46 -358.79,-16.45l0.98 -76.56c3.37,-1.99 8.68,-7.63 10.36,-4.51l32.28 -10.69c119.18,-26.64 174.23,-1.93 382.94,-79.46 358.46,-133.15 653.95,-401.13 815.75,-776.68 226.15,-524.94 96,-1194.91 -329.85,-1574.68 -74.96,24.63 -92.59,80.57 -164.42,119.44 -128.41,-175.96 -540.24,-313.68 -819.91,-309.64 -895.28,12.9 -1478.39,967.32 -1064,1774.93 30.6,59.64 87.09,129.61 107.27,180.99zm1880.67 -1564.29l121.71 171.65c37.47,56.77 77.28,132.48 103.26,199.87 122.01,316.49 117.14,705.44 -45.12,1008.71 -227.07,424.45 -646.38,678.59 -1147.71,660.33 -170.54,-6.22 -357.33,-60.76 -481.64,-124.31 -162.43,-83.04 -238.66,-163.96 -348.02,-258.02l-48.95 46.81c230.09,226.29 502.43,387.36 864.21,407.04 1001.54,54.46 1612.99,-960.41 1275.05,-1764.84 -47.12,-112.14 -172.36,-349.32 -258.08,-385.81l-34.72 38.57zm-1732.17 1087.74c75.27,28.09 118.25,51.78 171.89,100.19 3.11,75.03 -23.31,94.59 -8.6,152.57 76.8,16.75 64.09,-3.43 98.98,-61.27 79.58,-131.98 87.07,-63.38 21.42,-189.44 -13.04,-25.03 -26.72,-67.83 -39.99,-90.73 -38.34,-66.19 -127.17,-56.1 -216.22,-55.87l-27.48 144.54zm504.43 89.73l-2.52 164.55c106.22,19.29 392.71,-3.18 237.28,268.32 -116.64,10.66 -120.94,-40.46 -212.31,-39.79l9.38 133.76c63.37,102.9 6.15,-31.36 24.24,31.34l-150.76 74.7c19.44,84.37 306.93,110.91 384.06,112.59 408.99,8.88 853.27,-243.72 977.95,-546.84 -169.3,-105.89 -150.06,19.24 -463.36,5.06 -34.01,-74.79 -109.87,-137.66 -149.05,-196.94 -37.77,0.76 -76.6,4.01 -106.44,16.89 -47.7,20.6 -26.03,22.79 -70.94,57.69 -184.04,19.47 -178.37,-67.49 -260.55,-138.1 -123.64,25.34 -40.84,55.4 -216.99,56.75zm-566.12 -983.48l218.15 -24.82c42.13,49.62 80.14,120.11 122.69,172.56 51.32,63.27 59.5,139.17 131,174.25 156.47,76.77 244.78,-179.18 383.66,-184.78 79.53,59.82 80.91,133.36 168,196.74 59.8,43.52 171.94,142.2 251.55,68.52 36.39,-42.6 -20.04,-169.87 -39.09,-209 -43.32,-89.05 -68.33,-106.75 -4.57,-198.32 31.5,-45.23 108.12,-104.85 95.91,-183.06 -9.53,-61.09 -35.97,-55.02 -55.15,-90.87 -28.06,-52.43 -5.56,-56.66 1.78,-120.85 -295.47,-70.71 -453.06,-108.87 -758.16,-2.41 -186.01,64.92 -456.98,255.71 -515.76,402.04z"/>
   <polygon class="fil1" points="4416.02,4233.07 4932.92,4234.32 4933.36,4076.84 4597.97,4076.31 4590.69,3869.8 4904.78,3867.4 4903.15,3713.35 4591.7,3708.93 4593.85,3555.9 4859.62,3555.55 4859.52,3399.3 4416.86,3399.25 "/>
   <path class="fil1" d="M3659.68 4233.6l175.6 -1.33 3.15 -141.95c162.54,-3.43 151.58,119.68 230.75,144.29l208.02 -1.24c-31.94,-82.05 -94.98,-84.38 -162.84,-196.62 209.32,-106.89 220.03,-357.7 126.89,-486.88 -134.16,-186.06 -302.96,-150.7 -581.03,-150.4l-0.55 834.13zm175.79 -303.86c166.57,2.05 277.87,-6.11 282.91,-178.73 5.36,-183.43 -121.02,-195.03 -282.93,-193.03l0.02 371.76z"/>
   <path class="fil1" d="M755.57 4232.4l174.87 1.69 2.27 -142.86c194.22,-10.3 107.7,138.82 283.53,144.16 47.44,1.44 105.43,-1.65 153.54,-3.15 -29.71,-58.08 -108.07,-138.46 -158.18,-171.34 43.95,-84.16 116.78,-73.22 162.64,-211.49 34.71,-104.66 20.88,-210.44 -33.35,-293.81 -116.06,-178.4 -326,-164.79 -585.96,-154.56l0.65 831.36zm174.81 -305.92c157.27,19.38 280.29,-16.17 285.81,-176.44 5.91,-170.94 -124.1,-202.5 -285.6,-190.89l-0.21 367.33z"/>
   <path class="fil1" d="M2152.78 4233.27l173.23 0.78 1.36 -139.41c160.7,-27.62 233.55,15.06 344.92,-90.33 202.45,-191.59 127.54,-494.87 -88.28,-578.11 -110.96,-42.8 -302.97,-26.44 -431.38,-27.24l0.14 834.32zm173.93 -598.18l2.01 294.31c141.94,3.21 296.77,-1.67 282.82,-207.71 -10.59,-156.36 -137.04,-167.14 -283.35,-164.36l-1.48 77.76z"/>
   <path class="fil1" d="M-0 4232.7l174.67 0.14 2.47 -143.59c159.92,-1.72 251.52,-0.32 346.54,-91.24 172.22,-164.81 155.16,-468.84 -96.33,-571.13 -108.9,-44.29 -300.94,-28.59 -426.77,-26.47l-0.57 832.29zm174.16 -302.81c164.57,5.45 279.66,-13.01 285.83,-180.47 6.53,-177.64 -122.59,-195 -285.45,-192.56l-0.38 373.03z"/>
   <path class="fil1" d="M2714.11 4233.85l168.18 -1.14 53.8 -108.16 410.37 -1.15 51.2 111.22 181.38 -0.26c-25.59,-88.1 -246.22,-488.9 -316.62,-631.45l-119.62 -201.43c-42.99,58.34 -404.28,753.47 -428.69,832.37zm312.1 -270.37l231.69 0.1c-13.32,-68.39 -85.87,-176.85 -110.29,-246.49 -42.91,43.27 -114.01,198.14 -121.4,246.4z"/>
   <polygon class="fil1" points="1512.75,4233.42 2019.63,4235.32 2032.08,4077.67 1691.19,4076.25 1686.59,3873.66 1998.89,3867.39 1997.39,3711.49 1687.09,3710.88 1688.76,3557.32 1949.72,3556.81 1957.75,3399.5 1510.84,3400.78 "/>
   <polygon class="fil1" points="6111.46,3635.09 6111.77,4232.08 6629.7,4232.72 6630.22,4078.38 6292.46,4076.03 6285.57,3870.06 6598.93,3866.99 6598.22,3712.48 6286.1,3709.08 6285.55,3557.64 6550.77,3555.47 6556.72,3404.19 6111.13,3400.12 "/>
   <path class="fil1" d="M5806.88 4031.79c-124.24,90.79 -116.32,42.38 -236.85,-7.65 -37.32,54.1 -79.83,51.28 -117.25,103.09 540.29,297.9 637.9,-181.46 468.12,-346.32 -86.39,-83.87 -184.43,-62.51 -290.56,-111.86 -11.38,-249.08 138.19,21.84 282.15,-178.72 -107.21,-177.18 -439.74,-121.41 -458.96,115.64 -10.29,126.87 57.45,198.05 147.31,235.12 126.43,52.13 226.73,8.19 206.03,190.7z"/>
   <polygon class="fil1" points="5029.64,3948.42 5355.93,3953.05 5356.18,3826.71 5030.44,3827.04 "/>
  </g>
 </g>
</svg>
